<svg width="207" height="208" viewBox="0 0 207 208" fill="none" xmlns="http://www.w3.org/2000/svg">
<path d="M207 104C207 161.161 160.661 207.5 103.5 207.5C46.3385 207.5 0 161.161 0 104C0 46.8385 46.3385 0.5 103.5 0.5C160.661 0.5 207 46.8385 207 104Z" fill="#D9D9D9"/>
<path d="M39.5 145V139.559C39.5 118.523 56.5527 101.471 77.5882 101.471C98.6238 101.471 115.676 118.523 115.676 139.559V145" stroke="#1E1A23" stroke-width="5" stroke-linecap="round"/>
<path d="M104.794 112.353C104.794 97.3277 116.975 85.1471 132 85.1471C147.025 85.1471 159.206 97.3277 159.206 112.353V115.074" stroke="#1E1A23" stroke-width="5" stroke-linecap="round"/>
<path d="M77.5882 101.471C89.6083 101.471 99.3529 91.726 99.3529 79.7059C99.3529 67.6856 89.6083 57.9412 77.5882 57.9412C65.5679 57.9412 55.8235 67.6856 55.8235 79.7059C55.8235 91.726 65.5679 101.471 77.5882 101.471Z" stroke="#1E1A23" stroke-width="5" stroke-linecap="round" stroke-linejoin="round"/>
<path d="M132 85.1471C141.016 85.1471 148.324 77.8387 148.324 68.8235C148.324 59.8083 141.016 52.5 132 52.5C122.985 52.5 115.676 59.8083 115.676 68.8235C115.676 77.8387 122.985 85.1471 132 85.1471Z" stroke="#1E1A23" stroke-width="5" stroke-linecap="round" stroke-linejoin="round"/>
<path d="M207 104C207 161.161 160.661 207.5 103.5 207.5C46.3385 207.5 0 161.161 0 104C0 46.8385 46.3385 0.5 103.5 0.5C160.661 0.5 207 46.8385 207 104Z" fill="#191818" fill-opacity="0.84"/>
<path d="M64.5678 90.5664C64.5147 90.0958 64.296 89.7312 63.9115 89.4727C63.5271 89.2108 63.0432 89.0799 62.4598 89.0799C62.0422 89.0799 61.6809 89.1462 61.376 89.2788C61.0711 89.408 60.8341 89.587 60.6651 89.8157C60.4994 90.0411 60.4165 90.298 60.4165 90.5863C60.4165 90.8283 60.4728 91.0371 60.5855 91.2127C60.7015 91.3884 60.8523 91.5359 61.0379 91.6552C61.2269 91.7712 61.429 91.869 61.6445 91.9485C61.8599 92.0248 62.0671 92.0877 62.2659 92.1375L63.2602 92.396C63.5851 92.4755 63.9182 92.5832 64.2595 92.7191C64.6009 92.855 64.9174 93.034 65.2091 93.2561C65.5008 93.4781 65.7361 93.7532 65.9151 94.0813C66.0974 94.4095 66.1885 94.8022 66.1885 95.2596C66.1885 95.8363 66.0394 96.3484 65.7411 96.7958C65.4461 97.2433 65.0169 97.5963 64.4534 97.8548C63.8933 98.1133 63.2155 98.2426 62.42 98.2426C61.6577 98.2426 60.9982 98.1216 60.4414 97.8796C59.8845 97.6377 59.4487 97.2946 59.1338 96.8505C58.819 96.4031 58.645 95.8728 58.6118 95.2596H60.153C60.1828 95.6275 60.3022 95.9341 60.511 96.1794C60.7231 96.4213 60.9932 96.6019 61.3213 96.7213C61.6528 96.8373 62.0157 96.8953 62.4101 96.8953C62.8443 96.8953 63.2304 96.8273 63.5685 96.6914C63.9099 96.5522 64.1783 96.36 64.3739 96.1147C64.5694 95.8661 64.6672 95.5761 64.6672 95.2447C64.6672 94.9431 64.581 94.6962 64.4087 94.5039C64.2397 94.3117 64.0093 94.1526 63.7176 94.0267C63.4293 93.9007 63.1028 93.7897 62.7382 93.6936L61.5351 93.3654C60.7198 93.1434 60.0735 92.8169 59.5962 92.386C59.1222 91.9552 58.8852 91.3851 58.8852 90.6758C58.8852 90.0892 59.0443 89.5771 59.3625 89.1396C59.6807 88.7021 60.1116 88.3624 60.6551 88.1204C61.1987 87.8751 61.8119 87.7525 62.4946 87.7525C63.184 87.7525 63.7922 87.8735 64.3192 88.1154C64.8495 88.3574 65.2671 88.6905 65.572 89.1147C65.877 89.5357 66.0361 90.0196 66.0493 90.5664H64.5678ZM67.8143 98.0735V87.8917H74.1978V89.2142H69.3505V92.3164H73.8647V93.6339H69.3505V96.7511H74.2575V98.0735H67.8143ZM76.0398 98.0735V87.8917H77.576V96.7511H82.1897V98.0735H76.0398ZM83.7322 98.0735V87.8917H90.1157V89.2142H85.2684V92.3164H89.7826V93.6339H85.2684V96.7511H90.1753V98.0735H83.7322ZM100.414 91.2028H98.8633C98.8036 90.8714 98.6926 90.5797 98.5302 90.3278C98.3677 90.0759 98.1689 89.8621 97.9336 89.6865C97.6982 89.5108 97.4347 89.3782 97.1431 89.2887C96.8547 89.1992 96.5481 89.1545 96.2233 89.1545C95.6367 89.1545 95.1114 89.302 94.6473 89.597C94.1866 89.892 93.8221 90.3245 93.5536 90.8946C93.2884 91.4646 93.1559 92.1607 93.1559 92.9826C93.1559 93.8112 93.2884 94.5106 93.5536 95.0806C93.8221 95.6507 94.1883 96.0816 94.6523 96.3732C95.1163 96.6649 95.6383 96.8107 96.2184 96.8107C96.5399 96.8107 96.8448 96.7677 97.1331 96.6815C97.4248 96.592 97.6883 96.4611 97.9236 96.2887C98.1589 96.1164 98.3578 95.9059 98.5202 95.6573C98.6859 95.4054 98.8003 95.1171 98.8633 94.7923L100.414 94.7973C100.332 95.2977 100.171 95.7584 99.9321 96.1794C99.6968 96.597 99.3936 96.9582 99.0223 97.2632C98.6544 97.5648 98.2335 97.7984 97.7596 97.9642C97.2856 98.1299 96.7686 98.2127 96.2084 98.2127C95.3268 98.2127 94.5413 98.0039 93.8519 97.5863C93.1625 97.1654 92.6189 96.5638 92.2212 95.7816C91.8268 94.9994 91.6296 94.0664 91.6296 92.9826C91.6296 91.8955 91.8285 90.9625 92.2262 90.1836C92.6239 89.4014 93.1675 88.8015 93.8569 88.3839C94.5463 87.963 95.3301 87.7525 96.2084 87.7525C96.7487 87.7525 97.2525 87.8304 97.7198 87.9862C98.1904 88.1386 98.613 88.364 98.9875 88.6623C99.3621 88.9573 99.672 89.3186 99.9172 89.7461C100.162 90.1704 100.328 90.6559 100.414 91.2028ZM103.579 87.8917V98.0735H102.043V87.8917H103.579ZM114.451 92.9826C114.451 94.0697 114.252 95.0044 113.854 95.7866C113.456 96.5655 112.911 97.1654 112.218 97.5863C111.529 98.0039 110.745 98.2127 109.867 98.2127C108.985 98.2127 108.198 98.0039 107.505 97.5863C106.816 97.1654 106.272 96.5638 105.875 95.7816C105.477 94.9994 105.278 94.0664 105.278 92.9826C105.278 91.8955 105.477 90.9625 105.875 90.1836C106.272 89.4014 106.816 88.8015 107.505 88.3839C108.198 87.963 108.985 87.7525 109.867 87.7525C110.745 87.7525 111.529 87.963 112.218 88.3839C112.911 88.8015 113.456 89.4014 113.854 90.1836C114.252 90.9625 114.451 91.8955 114.451 92.9826ZM112.929 92.9826C112.929 92.154 112.795 91.4563 112.527 90.8896C112.261 90.3195 111.897 89.8886 111.433 89.597C110.972 89.302 110.45 89.1545 109.867 89.1545C109.28 89.1545 108.756 89.302 108.296 89.597C107.835 89.8886 107.47 90.3195 107.202 90.8896C106.937 91.4563 106.804 92.154 106.804 92.9826C106.804 93.8112 106.937 94.5106 107.202 95.0806C107.47 95.6474 107.835 96.0783 108.296 96.3732C108.756 96.6649 109.28 96.8107 109.867 96.8107C110.45 96.8107 110.972 96.6649 111.433 96.3732C111.897 96.0783 112.261 95.6474 112.527 95.0806C112.795 94.5106 112.929 93.8112 112.929 92.9826ZM124.374 87.8917V98.0735H122.962L117.787 90.6062H117.692V98.0735H116.156V87.8917H117.578L122.758 95.369H122.853V87.8917H124.374ZM127.265 98.0735H125.634L129.298 87.8917H131.073L134.737 98.0735H133.107L130.228 89.7411H130.148L127.265 98.0735ZM127.538 94.0863H132.828V95.3789H127.538V94.0863ZM135.998 98.0735V87.8917H139.627C140.416 87.8917 141.07 88.0276 141.591 88.2994C142.114 88.5712 142.505 88.9473 142.764 89.4279C143.022 89.9052 143.152 90.4571 143.152 91.0835C143.152 91.7066 143.021 92.2551 142.759 92.7291C142.5 93.1997 142.109 93.566 141.586 93.8278C141.065 94.0896 140.411 94.2205 139.622 94.2205H136.873V92.8981H139.483C139.98 92.8981 140.384 92.8268 140.696 92.6843C141.011 92.5418 141.241 92.3347 141.387 92.0629C141.533 91.7911 141.606 91.4646 141.606 91.0835C141.606 90.699 141.531 90.3659 141.382 90.0842C141.236 89.8025 141.006 89.587 140.691 89.4379C140.379 89.2854 139.97 89.2092 139.463 89.2092H137.534V98.0735H135.998ZM141.024 93.4798L143.539 98.0735H141.789L139.324 93.4798H141.024ZM50.38 115.074H48.7493L52.4134 104.892H54.1883L57.8523 115.074H56.2216L53.3431 106.741H53.2635L50.38 115.074ZM50.6535 111.086H55.9432V112.379H50.6535V111.086ZM58.9362 104.892L61.77 113.184H61.8843L64.7181 104.892H66.3787L62.7146 115.074H60.9397L57.2757 104.892H58.9362ZM67.46 115.074H65.8293L69.4934 104.892H71.2683L74.9323 115.074H73.3016L70.4231 106.741H70.3435L67.46 115.074ZM67.7335 111.086H73.0232V112.379H67.7335V111.086ZM74.4874 106.214V104.892H82.3674V106.214H79.1905V115.074H77.6593V106.214H74.4874ZM83.5557 115.074H81.925L85.589 104.892H87.3639L91.028 115.074H89.3973L86.5187 106.741H86.4392L83.5557 115.074ZM83.8291 111.086H89.1189V112.379H83.8291V111.086ZM92.2883 115.074V104.892H95.9176C96.7064 104.892 97.361 105.028 97.8813 105.299C98.405 105.571 98.7961 105.947 99.0546 106.428C99.3132 106.905 99.4424 107.457 99.4424 108.083C99.4424 108.707 99.3115 109.255 99.0497 109.729C98.7911 110.2 98.4 110.566 97.8764 110.828C97.356 111.09 96.7014 111.221 95.9126 111.221H93.1633V109.898H95.7734C96.2705 109.898 96.6749 109.827 96.9865 109.684C97.3013 109.542 97.5317 109.335 97.6775 109.063C97.8233 108.791 97.8963 108.465 97.8963 108.083C97.8963 107.699 97.8217 107.366 97.6725 107.084C97.5267 106.802 97.2964 106.587 96.9815 106.438C96.6699 106.285 96.2606 106.209 95.7535 106.209H93.8245V115.074H92.2883ZM97.3146 110.48L99.8302 115.074H98.0802L95.6143 110.48H97.3146ZM104.597 115.074V104.892H108.226C109.018 104.892 109.674 105.036 110.195 105.324C110.715 105.613 111.105 106.007 111.363 106.507C111.622 107.005 111.751 107.565 111.751 108.188C111.751 108.814 111.62 109.378 111.358 109.878C111.1 110.375 110.709 110.77 110.185 111.061C109.665 111.35 109.01 111.494 108.221 111.494H105.725V110.191H108.082C108.582 110.191 108.988 110.105 109.3 109.933C109.611 109.757 109.84 109.519 109.986 109.217C110.132 108.915 110.205 108.572 110.205 108.188C110.205 107.803 110.132 107.462 109.986 107.164C109.84 106.865 109.61 106.632 109.295 106.463C108.983 106.294 108.572 106.209 108.062 106.209H106.133V115.074H104.597ZM113.122 115.074H111.491L115.155 104.892H116.93L120.594 115.074H118.964L116.085 106.741H116.005L113.122 115.074ZM113.395 111.086H118.685V112.379H113.395V111.086ZM121.855 115.074V104.892H125.484C126.273 104.892 126.927 105.028 127.448 105.299C127.971 105.571 128.362 105.947 128.621 106.428C128.879 106.905 129.009 107.457 129.009 108.083C129.009 108.707 128.878 109.255 128.616 109.729C128.357 110.2 127.966 110.566 127.443 110.828C126.922 111.09 126.268 111.221 125.479 111.221H122.73V109.898H125.34C125.837 109.898 126.241 109.827 126.553 109.684C126.868 109.542 127.098 109.335 127.244 109.063C127.39 108.791 127.463 108.465 127.463 108.083C127.463 107.699 127.388 107.366 127.239 107.084C127.093 106.802 126.863 106.587 126.548 106.438C126.236 106.285 125.827 106.209 125.32 106.209H123.391V115.074H121.855ZM126.881 110.48L129.396 115.074H127.646L125.181 110.48H126.881ZM131.528 115.074H129.897L133.561 104.892H135.336L139 115.074H137.37L134.491 106.741H134.412L131.528 115.074ZM131.802 111.086H137.091V112.379H131.802V111.086ZM152.6 109.983C152.6 111.07 152.401 112.004 152.004 112.787C151.606 113.565 151.061 114.165 150.368 114.586C149.679 115.004 148.895 115.213 148.016 115.213C147.135 115.213 146.348 115.004 145.655 114.586C144.966 114.165 144.422 113.564 144.024 112.782C143.627 111.999 143.428 111.066 143.428 109.983C143.428 108.896 143.627 107.962 144.024 107.184C144.422 106.401 144.966 105.802 145.655 105.384C146.348 104.963 147.135 104.753 148.016 104.753C148.895 104.753 149.679 104.963 150.368 105.384C151.061 105.802 151.606 106.401 152.004 107.184C152.401 107.962 152.6 108.896 152.6 109.983ZM151.079 109.983C151.079 109.154 150.945 108.456 150.676 107.89C150.411 107.32 150.047 106.889 149.583 106.597C149.122 106.302 148.6 106.154 148.016 106.154C147.43 106.154 146.906 106.302 146.445 106.597C145.985 106.889 145.62 107.32 145.352 107.89C145.087 108.456 144.954 109.154 144.954 109.983C144.954 110.811 145.087 111.511 145.352 112.081C145.62 112.647 145.985 113.078 146.445 113.373C146.906 113.665 147.43 113.811 148.016 113.811C148.6 113.811 149.122 113.665 149.583 113.373C150.047 113.078 150.411 112.647 150.676 112.081C150.945 111.511 151.079 110.811 151.079 109.983ZM84.4499 125.108C84.3538 124.807 84.2246 124.537 84.0622 124.298C83.9031 124.056 83.7125 123.851 83.4904 123.681C83.2684 123.509 83.0148 123.378 82.7298 123.289C82.448 123.199 82.1381 123.154 81.8001 123.154C81.2267 123.154 80.7096 123.302 80.2489 123.597C79.7882 123.892 79.4237 124.324 79.1552 124.895C78.89 125.461 78.7575 126.156 78.7575 126.978C78.7575 127.803 78.8917 128.501 79.1602 129.071C79.4286 129.641 79.7965 130.073 80.2639 130.368C80.7312 130.663 81.2631 130.811 81.8597 130.811C82.4132 130.811 82.8955 130.698 83.3065 130.473C83.7208 130.247 84.0406 129.929 84.266 129.518C84.4947 129.104 84.609 128.617 84.609 128.056L85.0068 128.131H82.0934V126.863H86.0955V128.022C86.0955 128.877 85.9132 129.619 85.5487 130.249C85.1874 130.875 84.6869 131.359 84.0472 131.701C83.4109 132.042 82.6817 132.213 81.8597 132.213C80.9383 132.213 80.1296 132.001 79.4336 131.576C78.7409 131.152 78.2006 130.551 77.8129 129.772C77.4251 128.989 77.2312 128.061 77.2312 126.988C77.2312 126.176 77.3439 125.446 77.5693 124.8C77.7946 124.154 78.1112 123.605 78.5188 123.154C78.9298 122.7 79.4121 122.354 79.9656 122.115C80.5224 121.873 81.1306 121.753 81.7901 121.753C82.3403 121.753 82.8524 121.834 83.3264 121.996C83.8036 122.159 84.2279 122.389 84.5991 122.687C84.9736 122.985 85.2835 123.34 85.5288 123.751C85.774 124.159 85.9398 124.611 86.0259 125.108H84.4499ZM87.8356 132.074V121.892H91.4649C92.2537 121.892 92.9083 122.028 93.4287 122.299C93.9524 122.571 94.3435 122.947 94.602 123.428C94.8605 123.905 94.9898 124.457 94.9898 125.083C94.9898 125.707 94.8588 126.255 94.597 126.729C94.3385 127.2 93.9474 127.566 93.4237 127.828C92.9033 128.09 92.2488 128.221 91.4599 128.221H88.7106V126.898H91.3207C91.8179 126.898 92.2222 126.827 92.5338 126.684C92.8487 126.542 93.079 126.335 93.2248 126.063C93.3707 125.791 93.4436 125.465 93.4436 125.083C93.4436 124.699 93.369 124.366 93.2199 124.084C93.074 123.802 92.8437 123.587 92.5288 123.438C92.2173 123.285 91.8079 123.209 91.3008 123.209H89.3719V132.074H87.8356ZM92.8619 127.48L95.3775 132.074H93.6275L91.1616 127.48H92.8619ZM103.197 121.892H104.738V128.588C104.738 129.301 104.57 129.932 104.236 130.483C103.901 131.029 103.43 131.46 102.824 131.775C102.217 132.087 101.506 132.243 100.691 132.243C99.879 132.243 99.1697 132.087 98.5631 131.775C97.9566 131.46 97.486 131.029 97.1512 130.483C96.8165 129.932 96.6491 129.301 96.6491 128.588V121.892H98.1853V128.464C98.1853 128.925 98.2864 129.334 98.4886 129.692C98.6941 130.05 98.9841 130.332 99.3586 130.537C99.7331 130.739 100.177 130.841 100.691 130.841C101.208 130.841 101.654 130.739 102.028 130.537C102.406 130.332 102.695 130.05 102.893 129.692C103.096 129.334 103.197 128.925 103.197 128.464V121.892ZM106.761 132.074V121.892H110.391C111.183 121.892 111.839 122.036 112.359 122.324C112.88 122.613 113.269 123.007 113.528 123.507C113.786 124.005 113.915 124.565 113.915 125.188C113.915 125.814 113.785 126.378 113.523 126.878C113.264 127.375 112.873 127.77 112.349 128.061C111.829 128.35 111.174 128.494 110.386 128.494H107.89V127.191H110.246C110.747 127.191 111.153 127.105 111.464 126.933C111.776 126.757 112.005 126.519 112.151 126.217C112.296 125.915 112.369 125.572 112.369 125.188C112.369 124.803 112.296 124.462 112.151 124.164C112.005 123.865 111.774 123.632 111.459 123.463C111.148 123.294 110.737 123.209 110.227 123.209H108.298V132.074H106.761ZM124.351 126.983C124.351 128.07 124.152 129.004 123.754 129.787C123.357 130.565 122.811 131.165 122.119 131.586C121.429 132.004 120.645 132.213 119.767 132.213C118.885 132.213 118.098 132.004 117.406 131.586C116.716 131.165 116.173 130.564 115.775 129.782C115.377 128.999 115.178 128.066 115.178 126.983C115.178 125.896 115.377 124.962 115.775 124.184C116.173 123.401 116.716 122.802 117.406 122.384C118.098 121.963 118.885 121.753 119.767 121.753C120.645 121.753 121.429 121.963 122.119 122.384C122.811 122.802 123.357 123.401 123.754 124.184C124.152 124.962 124.351 125.896 124.351 126.983ZM122.83 126.983C122.83 126.154 122.695 125.456 122.427 124.89C122.162 124.32 121.797 123.889 121.333 123.597C120.872 123.302 120.35 123.154 119.767 123.154C119.18 123.154 118.657 123.302 118.196 123.597C117.735 123.889 117.371 124.32 117.102 124.89C116.837 125.456 116.705 126.154 116.705 126.983C116.705 127.811 116.837 128.511 117.102 129.081C117.371 129.647 117.735 130.078 118.196 130.373C118.657 130.665 119.18 130.811 119.767 130.811C120.35 130.811 120.872 130.665 121.333 130.373C121.797 130.078 122.162 129.647 122.427 129.081C122.695 128.511 122.83 127.811 122.83 126.983Z" fill="white"/>
</svg>
