<svg width="101" height="100" viewBox="0 0 101 100" fill="none" xmlns="http://www.w3.org/2000/svg">
<path fill-rule="evenodd" clip-rule="evenodd" d="M38.0862 8.62067C54.0834 8.62067 67.0517 21.589 67.0517 37.5862C67.0517 53.5834 54.0834 66.5517 38.0862 66.5517C34.6094 66.5517 31.2844 65.941 28.2067 64.8244C26.8502 64.3323 25.3417 64.2222 23.8702 64.5836C19.9181 65.5543 15.8836 66.1701 11.8147 66.4217C13.3448 62.3904 13.8734 58.0324 13.3355 53.7274C13.2159 52.7698 12.9027 51.93 12.5306 51.235C10.3557 47.1725 9.12068 42.5297 9.12068 37.5862C9.12068 21.589 22.089 8.62067 38.0862 8.62067ZM75.3276 37.5862C75.3276 17.0184 58.654 0.34481 38.0862 0.34481C17.5184 0.34481 0.844818 17.0184 0.844818 37.5862C0.844818 43.8622 2.40059 49.7869 5.15081 54.9838C5.58007 58.8149 4.78463 62.6959 2.86136 66.0617L2.69164 66.3587C0.535299 70.1323 3.26006 74.8276 7.60634 74.8276C13.6802 74.8276 19.7193 74.1039 25.5976 72.6808C29.5068 74.072 33.7127 74.8276 38.0862 74.8276C58.654 74.8276 75.3276 58.1541 75.3276 37.5862ZM85.0733 34.5164C83.3265 35.9899 83.105 38.6005 84.5785 40.3473C89.1362 45.7503 91.8793 52.7219 91.8793 60.3448C91.8793 65.6521 90.5505 70.6367 88.2109 74.9963C87.8358 75.6953 87.5244 76.534 87.4041 77.4862C86.8125 82.1648 87.4179 86.9043 89.1449 91.2645C84.6497 91.0116 80.1921 90.3419 75.8291 89.2664C74.3564 88.9034 72.8438 89.0127 71.4826 89.5094C68.17 90.718 64.5892 91.3793 60.8448 91.3793C53.2218 91.3793 46.2503 88.6362 40.8473 84.0785C39.1005 82.605 36.4899 82.8265 35.0163 84.5733C33.5428 86.3201 33.7643 88.9307 35.5112 90.4043C42.3511 96.1741 51.1968 99.6552 60.8448 99.6552C65.4888 99.6552 69.9532 98.8481 74.0997 97.3633C80.3492 98.8826 86.7708 99.6552 93.2296 99.6552C97.6489 99.6552 100.419 94.881 98.2269 91.044L98.2269 91.0439L98.0466 90.7284C95.9677 87.0902 95.1127 82.8929 95.5871 78.7522C98.5043 73.2564 100.155 66.9874 100.155 60.3448C100.155 50.6968 96.6741 41.8511 90.9043 35.0112C89.4307 33.2643 86.8201 33.0428 85.0733 34.5164ZM21.5345 41.7241C23.8198 41.7241 25.6724 39.8715 25.6724 37.5862C25.6724 35.3009 23.8198 33.4483 21.5345 33.4483C19.2492 33.4483 17.3965 35.3009 17.3965 37.5862C17.3965 39.8715 19.2492 41.7241 21.5345 41.7241ZM42.2241 37.5862C42.2241 39.8715 40.3715 41.7241 38.0862 41.7241C35.8009 41.7241 33.9483 39.8715 33.9483 37.5862C33.9483 35.3009 35.8009 33.4483 38.0862 33.4483C40.3715 33.4483 42.2241 35.3009 42.2241 37.5862ZM54.6379 41.7241C56.9232 41.7241 58.7759 39.8715 58.7759 37.5862C58.7759 35.3009 56.9232 33.4483 54.6379 33.4483C52.3526 33.4483 50.5 35.3009 50.5 37.5862C50.5 39.8715 52.3526 41.7241 54.6379 41.7241Z" fill="#7C3AED"/>
</svg>
