<svg width="25" height="24" viewBox="0 0 25 24" fill="none" xmlns="http://www.w3.org/2000/svg">
<path d="M12.0835 12L18.2089 16.1694C18.7561 16.5418 19.0835 17.1608 19.0835 17.8227V20.5C19.0835 20.7761 18.8597 21 18.5835 21H5.58353C5.30738 21 5.08353 20.7761 5.08353 20.5V17.8227C5.08353 17.1608 5.41099 16.5418 5.95815 16.1694L12.0835 12ZM12.0835 12L18.2089 7.83062C18.7561 7.45819 19.0835 6.83917 19.0835 6.17729V3.5C19.0835 3.22386 18.8597 3 18.5835 3H5.58353C5.30738 3 5.08353 3.22386 5.08353 3.5V6.17729C5.08353 6.83917 5.41099 7.45819 5.95815 7.83062L12.0835 12Z" stroke="#CA8A40" stroke-width="2" stroke-linecap="round" stroke-linejoin="round"/>
<path d="M16.0835 18.7771V20.85C16.0835 20.9328 16.0164 21 15.9335 21H8.23353C8.15068 21 8.08353 20.9328 8.08353 20.85V18.7771C8.08353 18.6047 8.17234 18.4445 8.31853 18.3531L11.6595 16.265C11.9189 16.1029 12.2481 16.1029 12.5075 16.265L15.8485 18.3531C15.9947 18.4445 16.0835 18.6047 16.0835 18.7771Z" fill="#CA8A40"/>
</svg>
