<svg width="430" height="429" viewBox="0 0 430 429" fill="none" xmlns="http://www.w3.org/2000/svg">
<ellipse cx="215.454" cy="212.5" rx="214.5" ry="212.5" fill="#E2E1E9" fill-opacity="0.9"/>
<g clip-path="url(#clip0_2006_12)">
<g style="mix-blend-mode:screen" filter="url(#filter0_f_2006_12)">
<path d="M163.797 248.547C319.418 -191.567 654.422 -400.529 738.454 -458.512L-332.774 -126.89L-175.211 813.979C55.2001 761.009 16.7384 664.445 163.797 248.547Z" fill="url(#paint0_radial_2006_12)" fill-opacity="0.3"/>
</g>
<circle cx="47.325" cy="111.395" r="2.2537" transform="rotate(-180 47.325 111.395)" fill="#6042FF" fill-opacity="0.3"/>
<circle cx="146.87" cy="138.803" r="2.2537" transform="rotate(-180 146.87 138.803)" fill="#6042FF" fill-opacity="0.3"/>
<circle cx="84.3835" cy="162.796" r="2.2537" transform="rotate(-180 84.3835 162.796)" fill="#6042FF" fill-opacity="0.1"/>
<circle cx="135.062" cy="119.866" r="2.2537" transform="rotate(-180 135.062 119.866)" fill="#6042FF" fill-opacity="0.15"/>
<circle cx="84.1086" cy="14.9758" r="2.2537" transform="rotate(-180 84.1086 14.9758)" fill="#6042FF" fill-opacity="0.1"/>
<circle cx="363.359" cy="197.355" r="0.751028" transform="rotate(-180 363.359 197.355)" fill="#6042FF" fill-opacity="0.15"/>
<circle cx="295.077" cy="163.251" r="0.751028" transform="rotate(-180 295.077 163.251)" fill="#6042FF" fill-opacity="0.3"/>
<circle cx="369.036" cy="104.454" r="0.751028" transform="rotate(-180 369.036 104.454)" fill="#6042FF" fill-opacity="0.1"/>
<circle cx="191.832" cy="37.5173" r="0.751028" transform="rotate(-180 191.832 37.5173)" fill="#6042FF" fill-opacity="0.3"/>
<circle cx="356.829" cy="139.734" r="0.751028" transform="rotate(-180 356.829 139.734)" fill="#6042FF" fill-opacity="0.6"/>
<circle cx="141.892" cy="149.437" r="0.751028" transform="rotate(-180 141.892 149.437)" fill="#6042FF" fill-opacity="0.1"/>
<circle cx="141.059" cy="71.8407" r="0.751028" transform="rotate(-180 141.059 71.8407)" fill="#6042FF" fill-opacity="0.1"/>
<circle cx="275.848" cy="217.3" r="0.751028" transform="rotate(-180 275.848 217.3)" fill="#6042FF" fill-opacity="0.3"/>
<circle cx="268.903" cy="19.5369" r="0.751028" transform="rotate(-180 268.903 19.5369)" fill="#6042FF" fill-opacity="0.7"/>
<circle cx="399.42" cy="49.1026" r="0.751028" transform="rotate(-180 399.42 49.1026)" fill="#6042FF" fill-opacity="0.15"/>
<circle cx="50.8262" cy="55.1129" r="0.751028" transform="rotate(-180 50.8262 55.1129)" fill="#6042FF" fill-opacity="0.1"/>
<circle cx="94.5014" cy="99.7206" r="0.751028" transform="rotate(-180 94.5014 99.7206)" fill="#6042FF" fill-opacity="0.3"/>
<circle cx="267.235" cy="107.763" r="0.751028" transform="rotate(-180 267.235 107.763)" fill="#6042FF" fill-opacity="0.15"/>
<circle cx="267.187" cy="4.81196" r="0.751028" transform="rotate(-180 267.187 4.81196)" fill="#6042FF" fill-opacity="0.1"/>
<circle cx="289.91" cy="13.8612" r="0.751028" transform="rotate(-180 289.91 13.8612)" fill="#6042FF" fill-opacity="0.3"/>
<circle cx="46.8194" cy="31.072" r="0.751028" transform="rotate(-180 46.8194 31.072)" fill="#6042FF" fill-opacity="0.15"/>
<circle cx="40.8092" cy="189.342" r="0.751028" transform="rotate(-180 40.8092 189.342)" fill="#6042FF" fill-opacity="0.3"/>
<circle cx="132.966" cy="17.048" r="0.751028" transform="rotate(-180 132.966 17.048)" fill="#6042FF" fill-opacity="0.1"/>
<path d="M218.264 25.1676L217.201 24.7275L216.761 23.6649L217.201 22.6024L218.264 22.1623L219.326 22.6024L219.767 23.6649L219.326 24.7275L218.264 25.1676Z" fill="#6042FF" fill-opacity="0.1"/>
<path d="M269.196 132.644L268.134 132.204L267.694 131.142L268.134 130.079L269.196 129.639L270.259 130.079L270.699 131.142L270.259 132.204L269.196 132.644Z" fill="#6042FF" fill-opacity="0.15"/>
<path d="M410.832 136.891C393.796 73.8842 340.268 -65.1639 262.437 -117.301" stroke="url(#paint1_linear_2006_12)" stroke-opacity="0.1" stroke-width="4.00683"/>
<path d="M152.463 -123.728C151.971 -73.6728 116.366 51.0792 -22.1199 149.643" stroke="url(#paint2_linear_2006_12)" stroke-opacity="0.1" stroke-width="4.00683"/>
<mask id="mask0_2006_12" style="mask-type:alpha" maskUnits="userSpaceOnUse" x="104" y="87" width="225" height="252">
<path d="M216.5 338.735C185.374 334.319 156.888 318.817 136.276 295.079C115.665 271.34 104.314 240.961 104.309 209.523V164.999C104.298 159.362 105.774 153.821 108.588 148.936C111.402 144.051 115.454 139.994 120.336 137.176L200.473 91.4018C205.315 88.6358 210.795 87.1809 216.372 87.1809C221.948 87.1809 227.429 88.6358 232.271 91.4018L312.664 137.176C317.546 139.994 321.599 144.051 324.413 148.936C327.226 153.821 328.702 159.362 328.691 164.999V209.491C328.701 240.936 317.355 271.327 296.742 295.074C276.129 318.82 247.634 334.324 216.5 338.735V338.735Z" fill="black"/>
</mask>
<g mask="url(#mask0_2006_12)">
<path d="M202.546 64.9667C199.657 65.7845 196.879 66.9595 194.277 68.4648L100.58 122.179C94.881 125.486 90.1503 130.246 86.8655 135.979C83.5806 141.711 81.8578 148.213 81.8708 154.828V207.075C81.8708 207.489 81.8708 207.865 81.8708 208.279C100.959 222.635 124.781 229.124 148.468 226.42C172.156 223.715 193.923 212.022 209.323 193.728C224.723 175.433 232.593 151.919 231.327 127.988C230.06 104.057 219.753 81.5152 202.509 64.9667H202.546Z" fill="#6042FF"/>
<path d="M296.633 274.626C293.179 274.642 289.823 275.772 287.065 277.85C284.306 279.927 282.292 282.84 281.323 286.155C280.354 289.47 280.481 293.009 281.686 296.245C282.891 299.482 285.109 302.242 288.01 304.116C295.709 296.802 302.49 288.578 308.204 279.626C306.714 278.054 304.92 276.8 302.931 275.941C300.942 275.081 298.799 274.634 296.633 274.626V274.626Z" fill="white"/>
</g>
<g filter="url(#filter1_b_2006_12)">
<path d="M216.5 338.735C185.374 334.319 156.888 318.817 136.276 295.079C115.665 271.34 104.314 240.961 104.309 209.523V164.999C104.298 159.362 105.774 153.821 108.588 148.936C111.402 144.051 115.454 139.994 120.336 137.176L200.473 91.4018C205.315 88.6358 210.795 87.1809 216.372 87.1809C221.948 87.1809 227.429 88.6358 232.271 91.4018L312.664 137.176C317.546 139.994 321.599 144.051 324.413 148.936C327.226 153.821 328.702 159.362 328.691 164.999V209.491C328.701 240.936 317.355 271.327 296.742 295.074C276.129 318.82 247.634 334.324 216.5 338.735V338.735Z" fill="url(#paint3_linear_2006_12)" fill-opacity="0.35"/>
<path d="M295.565 294.052C275.247 317.459 247.177 332.762 216.5 337.161C185.831 332.756 157.77 317.456 137.453 294.057C117.088 270.602 105.872 240.585 105.867 209.523C105.867 209.523 105.867 209.523 105.867 209.523L105.867 164.999L105.867 164.996C105.857 159.633 107.261 154.361 109.938 149.714C112.614 145.067 116.469 141.208 121.113 138.527C121.114 138.526 121.114 138.526 121.115 138.525L201.246 92.7548L200.473 91.4018L201.246 92.7548C205.853 90.1233 211.066 88.7391 216.372 88.7391C221.677 88.7391 226.891 90.1233 231.498 92.7548L231.5 92.7559L311.885 138.525C311.886 138.526 311.887 138.527 311.889 138.528C316.532 141.209 320.386 145.068 323.062 149.714C325.739 154.361 327.144 159.633 327.133 164.996V164.999V209.491V209.491C327.142 240.561 315.933 270.589 295.565 294.052Z" stroke="url(#paint4_linear_2006_12)" stroke-width="3.11642"/>
</g>
<path d="M216.498 302.61C194.301 299.457 173.982 288.413 159.265 271.5C144.547 254.586 136.416 232.937 136.362 210.517V173.013C136.364 170.662 136.988 168.353 138.17 166.321C139.352 164.289 141.051 162.605 143.093 161.441L209.863 123.264C211.885 122.115 214.172 121.511 216.498 121.511C218.824 121.511 221.111 122.115 223.133 123.264L289.903 161.441C291.946 162.605 293.644 164.289 294.826 166.321C296.008 168.353 296.632 170.662 296.635 173.013V210.324C296.633 232.779 288.525 254.479 273.802 271.434C259.079 288.389 238.731 299.459 216.498 302.61V302.61Z" fill="url(#paint5_linear_2006_12)" fill-opacity="0.92"/>
<g filter="url(#filter2_di_2006_12)">
<path d="M214.26 184.24C215.171 182.374 217.83 182.374 218.741 184.24L225.939 198.984C226.299 199.723 227.001 200.237 227.815 200.357L243.961 202.743C245.996 203.044 246.812 205.542 245.346 206.986L233.632 218.522C233.051 219.093 232.787 219.912 232.923 220.715L235.682 236.981C236.028 239.022 233.881 240.571 232.054 239.599L217.671 231.952C216.939 231.562 216.061 231.562 215.33 231.952L200.947 239.599C199.119 240.571 196.972 239.022 197.318 236.981L200.077 220.715C200.214 219.912 199.949 219.093 199.369 218.522L187.655 206.986C186.189 205.542 187.004 203.044 189.04 202.743L205.186 200.357C205.999 200.237 206.701 199.723 207.062 198.984L214.26 184.24Z" fill="url(#paint6_linear_2006_12)"/>
</g>
</g>
<rect x="7.00171" y="427.998" width="421.997" height="418.997" rx="198.998" transform="rotate(-90 7.00171 427.998)" stroke="url(#paint7_linear_2006_12)" stroke-width="2.00341"/>
<defs>
<filter id="filter0_f_2006_12" x="-480.976" y="-606.714" width="1367.63" height="1568.89" filterUnits="userSpaceOnUse" color-interpolation-filters="sRGB">
<feFlood flood-opacity="0" result="BackgroundImageFix"/>
<feBlend mode="normal" in="SourceGraphic" in2="BackgroundImageFix" result="shape"/>
<feGaussianBlur stdDeviation="74.1009" result="effect1_foregroundBlur_2006_12"/>
</filter>
<filter id="filter1_b_2006_12" x="-51.512" y="-68.6401" width="536.024" height="563.196" filterUnits="userSpaceOnUse" color-interpolation-filters="sRGB">
<feFlood flood-opacity="0" result="BackgroundImageFix"/>
<feGaussianBlur in="BackgroundImageFix" stdDeviation="77.9105"/>
<feComposite in2="SourceAlpha" operator="in" result="effect1_backgroundBlur_2006_12"/>
<feBlend mode="normal" in="SourceGraphic" in2="effect1_backgroundBlur_2006_12" result="shape"/>
</filter>
<filter id="filter2_di_2006_12" x="168.877" y="170.82" width="95.2453" height="93.1173" filterUnits="userSpaceOnUse" color-interpolation-filters="sRGB">
<feFlood flood-opacity="0" result="BackgroundImageFix"/>
<feColorMatrix in="SourceAlpha" type="matrix" values="0 0 0 0 0 0 0 0 0 0 0 0 0 0 0 0 0 0 127 0" result="hardAlpha"/>
<feOffset dy="6.01024"/>
<feGaussianBlur stdDeviation="9.01536"/>
<feComposite in2="hardAlpha" operator="out"/>
<feColorMatrix type="matrix" values="0 0 0 0 1 0 0 0 0 1 0 0 0 0 1 0 0 0 0.2 0"/>
<feBlend mode="normal" in2="BackgroundImageFix" result="effect1_dropShadow_2006_12"/>
<feBlend mode="normal" in="SourceGraphic" in2="effect1_dropShadow_2006_12" result="shape"/>
<feColorMatrix in="SourceAlpha" type="matrix" values="0 0 0 0 0 0 0 0 0 0 0 0 0 0 0 0 0 0 127 0" result="hardAlpha"/>
<feOffset/>
<feGaussianBlur stdDeviation="2.49314"/>
<feComposite in2="hardAlpha" operator="arithmetic" k2="-1" k3="1"/>
<feColorMatrix type="matrix" values="0 0 0 0 1 0 0 0 0 1 0 0 0 0 1 0 0 0 1 0"/>
<feBlend mode="normal" in2="shape" result="effect2_innerShadow_2006_12"/>
</filter>
<radialGradient id="paint0_radial_2006_12" cx="0" cy="0" r="1" gradientUnits="userSpaceOnUse" gradientTransform="translate(454.64 146.475) rotate(-150.409) scale(615.014 615.032)">
<stop offset="0.409332" stop-color="#6041FF"/>
<stop offset="1" stop-opacity="0"/>
<stop offset="1" stop-color="#2D2E32" stop-opacity="0"/>
</radialGradient>
<linearGradient id="paint1_linear_2006_12" x1="321.23" y1="-124.067" x2="392.818" y2="78.2044" gradientUnits="userSpaceOnUse">
<stop stop-color="#6042FF"/>
<stop offset="1" stop-color="white" stop-opacity="0"/>
</linearGradient>
<linearGradient id="paint2_linear_2006_12" x1="153.358" y1="-128.915" x2="47.1566" y2="144.24" gradientUnits="userSpaceOnUse">
<stop stop-color="#6042FF"/>
<stop offset="1" stop-color="white" stop-opacity="0"/>
</linearGradient>
<linearGradient id="paint3_linear_2006_12" x1="216.5" y1="87.1809" x2="216.5" y2="338.735" gradientUnits="userSpaceOnUse">
<stop stop-color="#28214A"/>
<stop offset="1" stop-color="#7360D5"/>
</linearGradient>
<linearGradient id="paint4_linear_2006_12" x1="216.5" y1="87.1809" x2="216.5" y2="274.166" gradientUnits="userSpaceOnUse">
<stop stop-color="#6042FF"/>
<stop offset="1" stop-color="#6042FF" stop-opacity="0"/>
</linearGradient>
<linearGradient id="paint5_linear_2006_12" x1="216.498" y1="121.511" x2="216.498" y2="302.61" gradientUnits="userSpaceOnUse">
<stop stop-color="#472AC9"/>
<stop offset="1" stop-color="#2B1694"/>
</linearGradient>
<linearGradient id="paint6_linear_2006_12" x1="204.034" y1="200.843" x2="230.212" y2="241.979" gradientUnits="userSpaceOnUse">
<stop stop-color="white"/>
<stop offset="1" stop-color="#9A88F5"/>
</linearGradient>
<linearGradient id="paint7_linear_2006_12" x1="430" y1="638.757" x2="117.911" y2="638.757" gradientUnits="userSpaceOnUse">
<stop stop-color="#6041FF"/>
<stop offset="1" stop-color="#6041FF" stop-opacity="0"/>
</linearGradient>
<clipPath id="clip0_2006_12">
<rect x="6" y="429" width="424" height="421" rx="200" transform="rotate(-90 6 429)" fill="white"/>
</clipPath>
</defs>
</svg>
